<svg width="1920" height="1080" viewBox="0 0 1920 1080" xmlns="http://www.w3.org/2000/svg">
  <!-- Barn interior background -->
  <rect width="1920" height="1080" fill="#F8F8FF"/>
  
  <!-- Ceiling -->
  <rect x="0" y="0" width="1920" height="100" fill="#DCDCDC"/>
  
  <!-- Support beams -->
  <rect x="0" y="0" width="20" height="1080" fill="#8B4513"/>
  <rect x="1900" y="0" width="20" height="1080" fill="#8B4513"/>
  <rect x="200" y="0" width="30" height="1080" fill="#8B4513"/>
  <rect x="600" y="0" width="30" height="1080" fill="#8B4513"/>
  <rect x="1000" y="0" width="30" height="1080" fill="#8B4513"/>
  <rect x="1400" y="0" width="30" height="1080" fill="#8B4513"/>
  <rect x="1800" y="0" width="30" height="1080" fill="#8B4513"/>
  
  <!-- Feeding stalls -->
  <g stroke="#C0C0C0" stroke-width="3" fill="none">
    <line x1="0" y1="400" x2="1920" y2="400"/>
    <line x1="0" y1="500" x2="1920" y2="500"/>
    <line x1="0" y1="600" x2="1920" y2="600"/>
    <line x1="0" y1="700" x2="1920" y2="700"/>
    <line x1="0" y1="800" x2="1920" y2="800"/>
    <line x1="0" y1="900" x2="1920" y2="900"/>
  </g>
  
  <!-- Feed trough -->
  <rect x="0" y="380" width="1920" height="40" fill="#C0C0C0"/>
  <rect x="0" y="375" width="1920" height="50" fill="#D2691E"/>
  
  <!-- Dairy cows -->
  <g>
    <!-- Cow 1 -->
    <g transform="translate(200, 450)">
      <!-- Body -->
      <ellipse cx="0" cy="0" rx="40" ry="25" fill="#FFFFFF"/>
      <!-- Head -->
      <ellipse cx="0" cy="-30" rx="25" ry="20" fill="#FFFFFF"/>
      <!-- Black spots -->
      <ellipse cx="-15" cy="-10" rx="8" ry="6" fill="#000000"/>
      <ellipse cx="15" cy="-5" rx="6" ry="4" fill="#000000"/>
      <ellipse cx="-10" cy="10" rx="5" ry="4" fill="#000000"/>
      <ellipse cx="20" cy="5" rx="7" ry="5" fill="#000000"/>
      <!-- Ears -->
      <ellipse cx="-20" cy="-40" rx="5" ry="8" fill="#FFFFFF"/>
      <ellipse cx="20" cy="-40" rx="5" ry="8" fill="#FFFFFF"/>
      <!-- Eyes -->
      <circle cx="-8" cy="-35" r="2" fill="#000000"/>
      <circle cx="8" cy="-35" r="2" fill="#000000"/>
      <!-- Nose -->
      <ellipse cx="0" cy="-25" rx="3" ry="2" fill="#000000"/>
    </g>
    
    <!-- Cow 2 -->
    <g transform="translate(400, 450)">
      <!-- Body -->
      <ellipse cx="0" cy="0" rx="40" ry="25" fill="#FFFFFF"/>
      <!-- Head -->
      <ellipse cx="0" cy="-30" rx="25" ry="20" fill="#FFFFFF"/>
      <!-- Black spots -->
      <ellipse cx="-20" cy="-5" rx="10" ry="7" fill="#000000"/>
      <ellipse cx="10" cy="-10" rx="8" ry="6" fill="#000000"/>
      <ellipse cx="-5" cy="15" rx="6" ry="4" fill="#000000"/>
      <ellipse cx="25" cy="0" rx="5" ry="4" fill="#000000"/>
      <!-- Ears -->
      <ellipse cx="-20" cy="-40" rx="5" ry="8" fill="#FFFFFF"/>
      <ellipse cx="20" cy="-40" rx="5" ry="8" fill="#FFFFFF"/>
      <!-- Eyes -->
      <circle cx="-8" cy="-35" r="2" fill="#000000"/>
      <circle cx="8" cy="-35" r="2" fill="#000000"/>
      <!-- Nose -->
      <ellipse cx="0" cy="-25" rx="3" ry="2" fill="#000000"/>
    </g>
    
    <!-- Cow 3 -->
    <g transform="translate(600, 450)">
      <!-- Body -->
      <ellipse cx="0" cy="0" rx="40" ry="25" fill="#FFFFFF"/>
      <!-- Head -->
      <ellipse cx="0" cy="-30" rx="25" ry="20" fill="#FFFFFF"/>
      <!-- Black spots -->
      <ellipse cx="-12" cy="-8" rx="7" ry="5" fill="#000000"/>
      <ellipse cx="18" cy="-12" rx="9" ry="6" fill="#000000"/>
      <ellipse cx="-8" cy="12" rx="6" ry="4" fill="#000000"/>
      <ellipse cx="22" cy="8" rx="4" ry="3" fill="#000000"/>
      <!-- Ears -->
      <ellipse cx="-20" cy="-40" rx="5" ry="8" fill="#FFFFFF"/>
      <ellipse cx="20" cy="-40" rx="5" ry="8" fill="#FFFFFF"/>
      <!-- Eyes -->
      <circle cx="-8" cy="-35" r="2" fill="#000000"/>
      <circle cx="8" cy="-35" r="2" fill="#000000"/>
      <!-- Nose -->
      <ellipse cx="0" cy="-25" rx="3" ry="2" fill="#000000"/>
    </g>
    
    <!-- Cow 4 -->
    <g transform="translate(800, 450)">
      <!-- Body -->
      <ellipse cx="0" cy="0" rx="40" ry="25" fill="#FFFFFF"/>
      <!-- Head -->
      <ellipse cx="0" cy="-30" rx="25" ry="20" fill="#FFFFFF"/>
      <!-- Black spots -->
      <ellipse cx="-18" cy="-6" rx="8" ry="6" fill="#000000"/>
      <ellipse cx="12" cy="-8" rx="7" ry="5" fill="#000000"/>
      <ellipse cx="-6" cy="14" rx="5" ry="4" fill="#000000"/>
      <ellipse cx="20" cy="6" rx="6" ry="4" fill="#000000"/>
      <!-- Ears -->
      <ellipse cx="-20" cy="-40" rx="5" ry="8" fill="#FFFFFF"/>
      <ellipse cx="20" cy="-40" rx="5" ry="8" fill="#FFFFFF"/>
      <!-- Eyes -->
      <circle cx="-8" cy="-35" r="2" fill="#000000"/>
      <circle cx="8" cy="-35" r="2" fill="#000000"/>
      <!-- Nose -->
      <ellipse cx="0" cy="-25" rx="3" ry="2" fill="#000000"/>
    </g>
    
    <!-- Cow 5 -->
    <g transform="translate(1000, 450)">
      <!-- Body -->
      <ellipse cx="0" cy="0" rx="40" ry="25" fill="#FFFFFF"/>
      <!-- Head -->
      <ellipse cx="0" cy="-30" rx="25" ry="20" fill="#FFFFFF"/>
      <!-- Black spots -->
      <ellipse cx="-16" cy="-4" rx="9" ry="6" fill="#000000"/>
      <ellipse cx="14" cy="-6" rx="8" ry="5" fill="#000000"/>
      <ellipse cx="-4" cy="16" rx="6" ry="4" fill="#000000"/>
      <ellipse cx="18" cy="4" rx="5" ry="3" fill="#000000"/>
      <!-- Ears -->
      <ellipse cx="-20" cy="-40" rx="5" ry="8" fill="#FFFFFF"/>
      <ellipse cx="20" cy="-40" rx="5" ry="8" fill="#FFFFFF"/>
      <!-- Eyes -->
      <circle cx="-8" cy="-35" r="2" fill="#000000"/>
      <circle cx="8" cy="-35" r="2" fill="#000000"/>
      <!-- Nose -->
      <ellipse cx="0" cy="-25" rx="3" ry="2" fill="#000000"/>
    </g>
    
    <!-- Cow 6 -->
    <g transform="translate(1200, 450)">
      <!-- Body -->
      <ellipse cx="0" cy="0" rx="40" ry="25" fill="#FFFFFF"/>
      <!-- Head -->
      <ellipse cx="0" cy="-30" rx="25" ry="20" fill="#FFFFFF"/>
      <!-- Black spots -->
      <ellipse cx="-14" cy="-2" rx="7" ry="5" fill="#000000"/>
      <ellipse cx="16" cy="-4" rx="9" ry="6" fill="#000000"/>
      <ellipse cx="-2" cy="18" rx="5" ry="4" fill="#000000"/>
      <ellipse cx="24" cy="2" rx="4" ry="3" fill="#000000"/>
      <!-- Ears -->
      <ellipse cx="-20" cy="-40" rx="5" ry="8" fill="#FFFFFF"/>
      <ellipse cx="20" cy="-40" rx="5" ry="8" fill="#FFFFFF"/>
      <!-- Eyes -->
      <circle cx="-8" cy="-35" r="2" fill="#000000"/>
      <circle cx="8" cy="-35" r="2" fill="#000000"/>
      <!-- Nose -->
      <ellipse cx="0" cy="-25" rx="3" ry="2" fill="#000000"/>
    </g>
    
    <!-- Cow 7 -->
    <g transform="translate(1400, 450)">
      <!-- Body -->
      <ellipse cx="0" cy="0" rx="40" ry="25" fill="#FFFFFF"/>
      <!-- Head -->
      <ellipse cx="0" cy="-30" rx="25" ry="20" fill="#FFFFFF"/>
      <!-- Black spots -->
      <ellipse cx="-17" cy="-3" rx="8" ry="6" fill="#000000"/>
      <ellipse cx="13" cy="-5" rx="7" ry="5" fill="#000000"/>
      <ellipse cx="-7" cy="15" rx="6" ry="4" fill="#000000"/>
      <ellipse cx="21" cy="7" rx="5" ry="4" fill="#000000"/>
      <!-- Ears -->
      <ellipse cx="-20" cy="-40" rx="5" ry="8" fill="#FFFFFF"/>
      <ellipse cx="20" cy="-40" rx="5" ry="8" fill="#FFFFFF"/>
      <!-- Eyes -->
      <circle cx="-8" cy="-35" r="2" fill="#000000"/>
      <circle cx="8" cy="-35" r="2" fill="#000000"/>
      <!-- Nose -->
      <ellipse cx="0" cy="-25" rx="3" ry="2" fill="#000000"/>
    </g>
    
    <!-- Cow 8 -->
    <g transform="translate(1600, 450)">
      <!-- Body -->
      <ellipse cx="0" cy="0" rx="40" ry="25" fill="#FFFFFF"/>
      <!-- Head -->
      <ellipse cx="0" cy="-30" rx="25" ry="20" fill="#FFFFFF"/>
      <!-- Black spots -->
      <ellipse cx="-15" cy="-1" rx="6" ry="4" fill="#000000"/>
      <ellipse cx="15" cy="-3" rx="8" ry="6" fill="#000000"/>
      <ellipse cx="-3" cy="17" rx="5" ry="4" fill="#000000"/>
      <ellipse cx="23" cy="5" rx="4" ry="3" fill="#000000"/>
      <!-- Ears -->
      <ellipse cx="-20" cy="-40" rx="5" ry="8" fill="#FFFFFF"/>
      <ellipse cx="20" cy="-40" rx="5" ry="8" fill="#FFFFFF"/>
      <!-- Eyes -->
      <circle cx="-8" cy="-35" r="2" fill="#000000"/>
      <circle cx="8" cy="-35" r="2" fill="#000000"/>
      <!-- Nose -->
      <ellipse cx="0" cy="-25" rx="3" ry="2" fill="#000000"/>
    </g>
  </g>
  
  <!-- Lighting fixtures -->
  <g fill="#FFFFE0">
    <circle cx="100" cy="150" r="40" opacity="0.9"/>
    <circle cx="500" cy="150" r="40" opacity="0.9"/>
    <circle cx="900" cy="150" r="40" opacity="0.9"/>
    <circle cx="1300" cy="150" r="40" opacity="0.9"/>
    <circle cx="1700" cy="150" r="40" opacity="0.9"/>
  </g>
  
  <!-- Feed dispensers -->
  <g fill="#8B4513">
    <rect x="50" y="300" width="20" height="100" rx="5"/>
    <rect x="250" y="300" width="20" height="100" rx="5"/>
    <rect x="450" y="300" width="20" height="100" rx="5"/>
    <rect x="650" y="300" width="20" height="100" rx="5"/>
    <rect x="850" y="300" width="20" height="100" rx="5"/>
    <rect x="1050" y="300" width="20" height="100" rx="5"/>
    <rect x="1250" y="300" width="20" height="100" rx="5"/>
    <rect x="1450" y="300" width="20" height="100" rx="5"/>
    <rect x="1650" y="300" width="20" height="100" rx="5"/>
    <rect x="1850" y="300" width="20" height="100" rx="5"/>
  </g>
</svg>
